<svg id="Capa_1" enable-background="new 0 0 512 512" height="512" viewBox="0 0 512 512" width="512" xmlns="http://www.w3.org/2000/svg"><g><g id="Google_News_1_"><g id="Keep_2_"><g><path d="m502.7 17.205c-5.7-2.401-12.001-1.199-16.199 3.3l-20.501 19.2-19.501-19.2c-5.7-5.999-15.298-5.999-20.999 0l-19.5 19.2-19.501-19.2c-5.7-5.999-15.298-5.999-20.999 0l-19.5 19.2-19.501-19.2c-5.7-5.999-15.298-5.999-20.999 0l-19.5 19.2-19.501-19.2c-5.7-5.999-15.298-5.999-20.999 0l-19.5 19.2-19.501-19.2c-5.7-5.999-15.298-5.999-20.999 0l-19.5 19.2-19.501-19.2c-5.7-5.999-15.298-5.999-20.999 0l-19.5 19.2-19.501-19.2c-5.7-5.999-15.298-5.999-20.999 0l-19.5 19.2-20.501-19.2c-4.199-4.499-10.499-5.7-16.199-3.3s-9.3 7.801-9.3 13.801v450c0 8.399 6.599 15 15 15h391l30-75 76-30v-360c0-6-3.6-11.4-9.3-13.801z" fill="#fff5f5"/></g><path d="m512 31.006v360l-76 30-30 75h-150v-480c3.9 0 7.8 1.5 10.499 4.499l19.501 19.2 19.501-19.2c5.7-5.999 15.298-5.999 20.999 0l19.5 19.2 19.501-19.2c5.7-5.999 15.298-5.999 20.999 0l19.5 19.2 19.501-19.2c5.7-5.999 15.298-5.999 20.999 0l19.5 19.2 20.501-19.2c4.199-4.499 10.499-5.7 16.199-3.3s9.3 7.801 9.3 13.801z" fill="#e3e7ea"/><path d="m512 391.006c0 3.9-1.5 7.8-4.501 10.499l-91 90c-2.699 3.001-6.599 4.501-10.499 4.501v-90c0-8.284 6.716-15 15-15z" fill="#babac0"/></g><g><g><g><g><path d="m256 436.006h-180c-8.291 0-15-6.709-15-15v-180c0-8.291 6.709-15 15-15h180c8.291 0 15 6.709 15 15v180c0 8.291-6.709 15-15 15z" fill="#4254b6"/></g></g></g></g><g id="Google_News_4_"><path d="m271 421.006v-180c0-8.291-6.709-15-15-15v210c8.291 0 15-6.709 15-15z" fill="#324492"/></g><path d="m226 316.006h-45c-8.291 0-15 6.709-15 15s6.709 15 15 15h27.237c-6.213 17.422-22.707 30-42.237 30-24.814 0-45-20.186-45-45s20.186-45 45-45c12.026 0 23.32 4.673 31.802 13.184 5.859 5.859 15.366 5.845 21.226.015 5.859-5.859 5.859-15.352.015-21.226-14.165-14.165-32.988-21.973-53.042-21.973-41.353 0-75 33.647-75 75s33.647 75 75 75 75-33.647 75-75c-.001-8.291-6.71-15-15.001-15z" fill="#fff5f5"/><g><path d="m436 256.006h-120c-8.291 0-15-6.709-15-15s6.709-15 15-15h120c8.291 0 15 6.709 15 15s-6.709 15-15 15z" fill="#babac0"/></g><g><path d="m436 316.006h-120c-8.291 0-15-6.709-15-15s6.709-15 15-15h120c8.291 0 15 6.709 15 15s-6.709 15-15 15z" fill="#babac0"/></g><g><path d="m376 376.006h-60c-8.291 0-15-6.709-15-15s6.709-15 15-15h60c8.291 0 15 6.709 15 15s-6.709 15-15 15z" fill="#babac0"/></g><g><path d="m346 436.006h-30c-8.291 0-15-6.709-15-15s6.709-15 15-15h30c8.291 0 15 6.709 15 15s-6.709 15-15 15z" fill="#babac0"/></g></g><g><g><g><g><path d="m436 196.006h-360c-8.291 0-15-6.709-15-15v-60c0-8.291 6.709-15 15-15h360c8.291 0 15 6.709 15 15v60c0 8.291-6.709 15-15 15z" fill="#4086f4"/></g></g></g></g><path d="m436 106.006h-180v90h180c8.291 0 15-6.709 15-15v-60c0-8.291-6.709-15-15-15z" fill="#4175df"/></g></svg>