<svg id="Capa_1" enable-background="new 0 0 512 512" height="512" viewBox="0 0 512 512" width="512" xmlns="http://www.w3.org/2000/svg"><g><g><g><g><g><path d="m437 480.997h-362c-24.813 0-45-20.187-45-45v-218.027c0-4.856 2.351-9.412 6.309-12.226l211-150c5.204-3.699 12.179-3.699 17.383 0l211 150c3.958 2.814 6.309 7.37 6.309 12.226v218.027c-.001 24.813-20.188 45-45.001 45z" fill="#4175df"/></g></g></g></g><path d="m437 480.997c24.813 0 45-20.187 45-45v-218.027c0-4.856-2.351-9.412-6.309-12.226l-211-150c-2.602-1.85-5.647-2.774-8.691-2.774v428.027z" fill="#4254b6"/><g><path d="m127.469 177.33c0 35.165-28.532 63.667-63.734 63.667s-63.735-28.502-63.735-63.667z" fill="#4086f4"/><path d="m256 177.33c0 35.165-29.594 63.667-64.797 63.667s-63.734-28.501-63.734-63.667z" fill="#324492"/><path d="m512 177.33h-127.469l-32.929-146.327h76.97c12.067 0 23.104 6.812 28.5 17.593z" fill="#4254b6"/><path d="m384.531 177.33h-128.531v-146.327h95.602z" fill="#4086f4"/><path d="m256 31.003v146.327h-128.531l31.867-146.327z" fill="#4254b6"/><path d="m159.336 31.003-31.867 146.327h-127.469l54.928-128.733c5.396-10.781 16.433-17.593 28.5-17.593h75.908z" fill="#80aef8"/><path d="m384.531 177.33c0 35.165-28.532 63.667-63.734 63.667s-64.797-28.502-64.797-63.667z" fill="#4175df"/><path d="m512 177.33c0 35.165-28.532 63.667-63.734 63.667s-63.734-28.501-63.734-63.667z" fill="#324492"/></g><path d="m406 330.997h-45c-8.284 0-15 6.716-15 15s6.716 15 15 15h27.42c-6.192 17.458-22.865 30-42.42 30-24.813 0-45-20.187-45-45s20.187-45 45-45c12.02 0 23.32 4.681 31.82 13.181 5.857 5.857 15.355 5.857 21.213 0 5.858-5.858 5.857-15.355 0-21.213-14.166-14.166-33-21.967-53.033-21.967-41.355 0-75 33.645-75 75s33.645 75 75 75 75-33.645 75-75c0-8.286-6.716-15.001-15-15.001z" fill="#e3e7ea"/></g></svg>