<svg id="Layer_1" data-name="Layer 1" xmlns="http://www.w3.org/2000/svg" viewBox="0 0 122.88 122.88"><defs><style>.cls-1{fill:#4285f4;}.cls-1,.cls-2,.cls-3,.cls-4,.cls-5{fill-rule:evenodd;}.cls-2{fill:#34a853;}.cls-3{fill:#fbbc05;}.cls-4{fill:#ea4335;}.cls-5{fill:#fff;}</style></defs><title>google-shopping</title><path class="cls-1" d="M98.74,32.91A8.78,8.78,0,1,0,90,24.14a8.78,8.78,0,0,0,8.77,8.77ZM36.56,30.23,63.49,3.31a11.31,11.31,0,0,1,8-3.31h40a11.37,11.37,0,0,1,11.37,11.37v40a11.16,11.16,0,0,1-3.37,8L92.63,86.3,36.56,30.23Z"/><path class="cls-2" d="M92.63,86.3,59.45,119.51a11.61,11.61,0,0,1-8.1,3.37,11.39,11.39,0,0,1-8.05-3.37L3.37,79.58a11.14,11.14,0,0,1-3.37-8,11.42,11.42,0,0,1,3.37-8.1l33.19-33.2L92.63,86.3Z"/><path class="cls-3" d="M22.75,99,3.37,79.58a11.14,11.14,0,0,1-3.37-8,11.42,11.42,0,0,1,3.37-8.1L36.56,30.24,64,57.69,22.75,99Z"/><path class="cls-4" d="M118.94,2.76A11.37,11.37,0,0,0,111.51,0h-40a11.31,11.31,0,0,0-8,3.31L36.56,30.23,64,57.69l28-28a8.74,8.74,0,0,1-2-5.58h0a8.78,8.78,0,0,1,8.77-8.78h0a8.71,8.71,0,0,1,5.57,2L118.94,2.76Z"/><path class="cls-1" d="M81.83,60.8A17.83,17.83,0,1,0,64,78.63,17.83,17.83,0,0,0,81.83,60.8Z"/><path class="cls-5" d="M88.29,55.56H64.58V65.73H78.23C77,72.19,71.63,75.9,64.58,75.9a15.57,15.57,0,0,1,0-31.12A14.46,14.46,0,0,1,74,48.25l7.4-7.66A24.84,24.84,0,0,0,64.58,34C50.47,34,39.13,45.74,39.13,60.34S50.47,86.67,64.58,86.67c12.72,0,24.29-9.57,24.29-26.33a22.31,22.31,0,0,0-.58-4.78Z"/></svg>