<svg id="Capa_1" enable-background="new 0 0 512 512" height="512" viewBox="0 0 512 512" width="512" xmlns="http://www.w3.org/2000/svg"><g><g id="Keep_3_"><g><g><path d="m467 0h-422c-24.901 0-45 20.099-45 45v422c0 24.899 20.099 45 45 45h332l30-105 105-30v-332c0-24.901-20.099-45-45-45z" fill="#fabe2c"/></g></g><path d="m512 45v332l-105 30-30 105h-120v-512h210c24.901 0 45 20.099 45 45z" fill="#ff9f00"/><path d="m331.768 118.079c-28.753-22.93-66.237-31.288-102.845-22.932-21.42 4.89-41.152 15.905-57.062 31.854-15.906 15.946-26.875 35.703-31.719 57.135-11.916 52.711 11.304 105.52 56.859 131.762v61.046c0 24.813 20.187 45 45 45v15c0 8.284 6.716 15 15 15s15-6.716 15-15v-15c24.813 0 45-20.187 45-45v-61.054c16.49-9.529 30.512-22.861 40.908-38.98 12.49-19.365 19.092-41.83 19.092-64.966-.001-36.728-16.488-70.941-45.233-93.865zm-59.768 273.866h-30c-8.271 0-15-6.729-15-15v-15h60v15c0 8.271-6.729 15-15 15zm23.563-98.653c-5.23 2.485-8.563 7.758-8.563 13.549v25.104h-60v-25.104c0-5.791-3.333-11.064-8.563-13.549-38.396-18.24-58.559-60.406-49.034-102.541 7.306-32.319 33.908-58.986 66.196-66.356 7.065-1.613 14.167-2.406 21.187-2.406 20.458 0 40.214 6.736 56.277 19.545 21.567 17.2 33.937 42.863 33.937 70.411 0 34.572-20.19 66.503-51.437 81.347z" fill="#fff5f5"/><path d="m331.768 118.079c-21.406-17.069-47.65-26.057-74.768-26.092v30.007c20.382.047 40.057 6.776 56.063 19.541 21.567 17.199 33.937 42.862 33.937 70.41 0 34.572-20.19 66.503-51.437 81.347-5.23 2.485-8.563 7.758-8.563 13.549v25.104h-30v30h30v15c0 8.271-6.729 15-15 15h-15v60c8.284 0 15-6.716 15-15v-15c24.813 0 45-20.187 45-45v-61.054c16.49-9.529 30.512-22.861 40.908-38.98 12.49-19.365 19.092-41.83 19.092-64.966 0-36.729-16.487-70.942-45.232-93.866z" fill="#e3e7ea"/><path d="m512 377c0 3.9-1.5 7.8-4.501 10.499l-120 120c-2.699 3.001-6.599 4.501-10.499 4.501v-120c0-8.284 6.716-15 15-15z" fill="#fdd929"/></g></g></svg>