<?xml version="1.0" encoding="UTF-8"?>
<!DOCTYPE svg PUBLIC "-//W3C//DTD SVG 1.1//EN" "http://www.w3.org/Graphics/SVG/1.1/DTD/svg11.dtd">
<!-- Creator: CorelDRAW X5 -->
<svg xmlns="http://www.w3.org/2000/svg" xml:space="preserve" width="129.976mm" height="130mm" style="shape-rendering:geometricPrecision; text-rendering:geometricPrecision; image-rendering:optimizeQuality; fill-rule:evenodd; clip-rule:evenodd"
viewBox="0 0 12998 13000"
 xmlns:xlink="http://www.w3.org/1999/xlink">
 <defs>
  <style type="text/css">
   <![CDATA[
    .fil0 {fill:#255FDB;fill-rule:nonzero}
    .fil1 {fill:#4285F4;fill-rule:nonzero}
    .fil2 {fill:#91BFFF;fill-rule:nonzero}
    .fil3 {fill:#C4E1FF;fill-rule:nonzero}
    .fil4 {fill:whitesmoke;fill-rule:nonzero}
   ]]>
  </style>
 </defs>
 <g id="Layer_x0020_1">
  <metadata id="CorelCorpID_0Corel-Layer"/>
  <path class="fil0" d="M4482 7855c-2215,-2931 -4490,-704 -3896,1345 1493,3266 5352,4704 8619,3210 1126,-515 2081,-1340 2754,-2379 -1713,1604 -4822,1336 -7477,-2176z"/>
  <path class="fil1" d="M6463 5836c-3047,-4622 -6463,-2159 -6463,665 -1,935 200,1859 591,2709 -405,-1913 1793,-3389 3840,-642 2972,3988 5890,3286 7522,1472 524,-805 863,-1716 991,-2667l0 13c-701,2174 -3794,2528 -6481,-1548l0 0z"/>
  <path class="fil2" d="M8551 3768c-2263,-3733 -5132,-3397 -7074,-1396 -957,1163 -1480,2623 -1477,4129 203,-2732 3508,-4634 6499,0 2659,4125 5971,3050 6442,895l0 -21c41,-294 59,-590 52,-886l0 -295c-1151,824 -2665,506 -4442,-2425l0 0z"/>
  <path class="fil3" d="M8567 4433c2072,3331 3859,2479 4431,1766 -23,-498 -104,-992 -240,-1471 -966,20 -1191,-141 -2142,-1589 -1453,-2226 -3283,-3729 -6480,-2695 -1036,406 -1951,1071 -2659,1930 2197,-2022 4893,-1473 7090,2058l0 0z"/>
  <path class="fil4" d="M10474 3427c947,1450 1524,1524 2283,1302 -984,-3458 -4585,-5462 -8043,-4478 -196,56 -389,121 -579,195 2857,-901 4882,755 6339,2981z"/>
 </g>
</svg>
